<?xml version="1.0" encoding="UTF-8" standalone="no"?>
<!DOCTYPE svg PUBLIC "-//W3C//DTD SVG 1.1//EN"
 "http://www.w3.org/Graphics/SVG/1.1/DTD/svg11.dtd">
<!-- Generated by graphviz version 2.36.0 (20140111.2315)
 -->
<!-- Title: proof Pages: 1 -->
<svg width="954pt" height="284pt"
 viewBox="0.00 0.00 954.00 284.00" xmlns="http://www.w3.org/2000/svg" xmlns:xlink="http://www.w3.org/1999/xlink">
<g id="graph0" class="graph" transform="scale(1 1) rotate(0) translate(4 280)">
<title>proof</title>
<polygon fill="white" stroke="none" points="-4,4 -4,-280 950,-280 950,4 -4,4"/>
<g id="clust1" class="cluster"><title>cluster</title>
<polygon fill="none" stroke="black" points="8,-8 8,-60 938,-60 938,-8 8,-8"/>
</g>
<!-- e0 -->
<g id="node1" class="node"><title>e0</title>
<ellipse fill="none" stroke="black" cx="95" cy="-146" rx="27" ry="18"/>
<text text-anchor="middle" x="95" y="-142.3" font-family="Times New Roman,serif" font-size="14.00">0.1</text>
</g>
<!-- r0 -->
<g id="node10" class="node"><title>r0</title>
<ellipse fill="black" stroke="black" cx="95" cy="-90" rx="1.8" ry="1.8"/>
</g>
<!-- e0&#45;&gt;r0 -->
<g id="edge2" class="edge"><title>e0&#45;&gt;r0</title>
<path fill="none" stroke="black" d="M95,-127.914C95,-114.071 95,-96.191 95,-91.9373"/>
</g>
<!-- e1 -->
<g id="node2" class="node"><title>e1</title>
<ellipse fill="none" stroke="black" cx="274" cy="-146" rx="27" ry="18"/>
<text text-anchor="middle" x="274" y="-142.3" font-family="Times New Roman,serif" font-size="14.00">0.1</text>
</g>
<!-- r1 -->
<g id="node12" class="node"><title>r1</title>
<ellipse fill="black" stroke="black" cx="274" cy="-90" rx="1.8" ry="1.8"/>
</g>
<!-- e1&#45;&gt;r1 -->
<g id="edge4" class="edge"><title>e1&#45;&gt;r1</title>
<path fill="none" stroke="black" d="M274,-127.914C274,-114.071 274,-96.191 274,-91.9373"/>
</g>
<!-- e2 -->
<g id="node3" class="node"><title>e2</title>
<ellipse fill="none" stroke="black" cx="353" cy="-146" rx="27" ry="18"/>
<text text-anchor="middle" x="353" y="-142.3" font-family="Times New Roman,serif" font-size="14.00">0.1</text>
</g>
<!-- r2 -->
<g id="node14" class="node"><title>r2</title>
<ellipse fill="black" stroke="black" cx="419" cy="-90" rx="1.8" ry="1.8"/>
</g>
<!-- e2&#45;&gt;r2 -->
<g id="edge7" class="edge"><title>e2&#45;&gt;r2</title>
<path fill="none" stroke="black" d="M369.315,-131.652C386.416,-117.66 411.63,-97.0297 417.667,-92.0909"/>
</g>
<!-- e3 -->
<g id="node4" class="node"><title>e3</title>
<ellipse fill="none" stroke="black" cx="467" cy="-258" rx="27" ry="18"/>
<text text-anchor="middle" x="467" y="-254.3" font-family="Times New Roman,serif" font-size="14.00">0.1</text>
</g>
<!-- r3 -->
<g id="node16" class="node"><title>r3</title>
<ellipse fill="black" stroke="black" cx="467" cy="-202" rx="1.8" ry="1.8"/>
</g>
<!-- e3&#45;&gt;r3 -->
<g id="edge9" class="edge"><title>e3&#45;&gt;r3</title>
<path fill="none" stroke="black" d="M467,-239.914C467,-226.071 467,-208.191 467,-203.937"/>
</g>
<!-- e4 -->
<g id="node5" class="node"><title>e4</title>
<ellipse fill="none" stroke="black" cx="659" cy="-146" rx="27" ry="18"/>
<text text-anchor="middle" x="659" y="-142.3" font-family="Times New Roman,serif" font-size="14.00">0.01</text>
</g>
<!-- r4 -->
<g id="node17" class="node"><title>r4</title>
<ellipse fill="black" stroke="black" cx="659" cy="-90" rx="1.8" ry="1.8"/>
</g>
<!-- e4&#45;&gt;r4 -->
<g id="edge11" class="edge"><title>e4&#45;&gt;r4</title>
<path fill="none" stroke="black" d="M659,-127.914C659,-114.071 659,-96.191 659,-91.9373"/>
</g>
<!-- e5 -->
<g id="node6" class="node"><title>e5</title>
<ellipse fill="none" stroke="black" cx="777" cy="-146" rx="27" ry="18"/>
<text text-anchor="middle" x="777" y="-142.3" font-family="Times New Roman,serif" font-size="14.00">1.0</text>
</g>
<!-- r5 -->
<g id="node19" class="node"><title>r5</title>
<ellipse fill="black" stroke="black" cx="777" cy="-90" rx="1.8" ry="1.8"/>
</g>
<!-- e5&#45;&gt;r5 -->
<g id="edge13" class="edge"><title>e5&#45;&gt;r5</title>
<path fill="none" stroke="black" d="M777,-127.914C777,-114.071 777,-96.191 777,-91.9373"/>
</g>
<!-- e6 -->
<g id="node7" class="node"><title>e6</title>
<ellipse fill="none" stroke="black" cx="581" cy="-146" rx="27" ry="18"/>
<text text-anchor="middle" x="581" y="-142.3" font-family="Times New Roman,serif" font-size="14.00">0.1</text>
</g>
<!-- r6 -->
<g id="node21" class="node"><title>r6</title>
<ellipse fill="black" stroke="black" cx="537" cy="-90" rx="1.8" ry="1.8"/>
</g>
<!-- e6&#45;&gt;r6 -->
<g id="edge16" class="edge"><title>e6&#45;&gt;r6</title>
<path fill="none" stroke="black" d="M568.744,-129.958C557.352,-115.977 541.592,-96.6356 537.83,-92.0186"/>
</g>
<!-- e7 -->
<g id="node8" class="node"><title>e7</title>
<ellipse fill="none" stroke="black" cx="888" cy="-146" rx="27" ry="18"/>
<text text-anchor="middle" x="888" y="-142.3" font-family="Times New Roman,serif" font-size="14.00">1.0</text>
</g>
<!-- r7 -->
<g id="node23" class="node"><title>r7</title>
<ellipse fill="black" stroke="black" cx="888" cy="-90" rx="1.8" ry="1.8"/>
</g>
<!-- e7&#45;&gt;r7 -->
<g id="edge18" class="edge"><title>e7&#45;&gt;r7</title>
<path fill="none" stroke="black" d="M888,-127.914C888,-114.071 888,-96.191 888,-91.9373"/>
</g>
<!-- i0 -->
<g id="node9" class="node"><title>i0</title>
<polygon fill="none" stroke="black" points="535.25,-164 398.75,-164 398.75,-128 535.25,-128 535.25,-164"/>
<text text-anchor="middle" x="467" y="-142.3" font-family="Times New Roman,serif" font-size="14.00">(goodbye&#39; $24 C LT)</text>
</g>
<!-- i0&#45;&gt;r2 -->
<g id="edge6" class="edge"><title>i0&#45;&gt;r2</title>
<path fill="none" stroke="black" d="M451.813,-127.914C439.508,-114.071 423.614,-96.191 419.833,-91.9373"/>
</g>
<!-- i0&#45;&gt;r6 -->
<g id="edge15" class="edge"><title>i0&#45;&gt;r6</title>
<path fill="none" stroke="black" d="M489.148,-127.914C507.093,-114.071 530.271,-96.191 535.785,-91.9373"/>
</g>
<!-- o0 -->
<g id="node11" class="node"><title>o0</title>
<polygon fill="none" stroke="black" points="173.25,-52 16.75,-52 16.75,-16 173.25,-16 173.25,-52"/>
<text text-anchor="middle" x="95" y="-30.3" font-family="Times New Roman,serif" font-size="14.00">(atLoc&#39; E1 C OUTSIDE)</text>
</g>
<!-- r0&#45;&gt;o0 -->
<g id="edge1" class="edge"><title>r0&#45;&gt;o0</title>
<path fill="none" stroke="black" d="M95,-88.0627C95,-84.803 95,-73.5415 95,-62.2268"/>
<polygon fill="black" stroke="black" points="98.5001,-62.0488 95,-52.0489 91.5001,-62.0489 98.5001,-62.0488"/>
</g>
<!-- o1 -->
<g id="node13" class="node"><title>o1</title>
<polygon fill="none" stroke="black" points="356,-52 192,-52 192,-16 356,-16 356,-52"/>
<text text-anchor="middle" x="274" y="-30.3" font-family="Times New Roman,serif" font-size="14.00">(atLoc&#39; E2 LT OUTSIDE)</text>
</g>
<!-- r1&#45;&gt;o1 -->
<g id="edge3" class="edge"><title>r1&#45;&gt;o1</title>
<path fill="none" stroke="black" d="M274,-88.0627C274,-84.803 274,-73.5415 274,-62.2268"/>
<polygon fill="black" stroke="black" points="277.5,-62.0488 274,-52.0489 270.5,-62.0489 277.5,-62.0488"/>
</g>
<!-- o2 -->
<g id="node15" class="node"><title>o2</title>
<polygon fill="none" stroke="black" points="463.25,-52 374.75,-52 374.75,-16 463.25,-16 463.25,-52"/>
<text text-anchor="middle" x="419" y="-30.3" font-family="Times New Roman,serif" font-size="14.00">(wave&#39; E3 C)</text>
</g>
<!-- r2&#45;&gt;o2 -->
<g id="edge5" class="edge"><title>r2&#45;&gt;o2</title>
<path fill="none" stroke="black" d="M419,-88.0627C419,-84.803 419,-73.5415 419,-62.2268"/>
<polygon fill="black" stroke="black" points="422.5,-62.0488 419,-52.0489 415.5,-62.0489 422.5,-62.0488"/>
</g>
<!-- r3&#45;&gt;i0 -->
<g id="edge8" class="edge"><title>r3&#45;&gt;i0</title>
<path fill="none" stroke="black" d="M467,-200.063C467,-196.803 467,-185.541 467,-174.227"/>
<polygon fill="black" stroke="black" points="470.5,-174.049 467,-164.049 463.5,-174.049 470.5,-174.049"/>
</g>
<!-- o3 -->
<g id="node18" class="node"><title>o3</title>
<polygon fill="none" stroke="black" points="707.25,-52 610.75,-52 610.75,-16 707.25,-16 707.25,-52"/>
<text text-anchor="middle" x="659" y="-30.3" font-family="Times New Roman,serif" font-size="14.00">(wave&#39; E4 LT)</text>
</g>
<!-- r4&#45;&gt;o3 -->
<g id="edge10" class="edge"><title>r4&#45;&gt;o3</title>
<path fill="none" stroke="black" d="M659,-88.0627C659,-84.803 659,-73.5415 659,-62.2268"/>
<polygon fill="black" stroke="black" points="662.5,-62.0488 659,-52.0489 655.5,-62.0489 662.5,-62.0488"/>
</g>
<!-- o4 -->
<g id="node20" class="node"><title>o4</title>
<polygon fill="none" stroke="black" points="828.25,-52 725.75,-52 725.75,-16 828.25,-16 828.25,-52"/>
<text text-anchor="middle" x="777" y="-30.3" font-family="Times New Roman,serif" font-size="14.00">(par&#39; E5 E3 E4)</text>
</g>
<!-- r5&#45;&gt;o4 -->
<g id="edge12" class="edge"><title>r5&#45;&gt;o4</title>
<path fill="none" stroke="black" d="M777,-88.0627C777,-84.803 777,-73.5415 777,-62.2268"/>
<polygon fill="black" stroke="black" points="780.5,-62.0488 777,-52.0489 773.5,-62.0489 780.5,-62.0488"/>
</g>
<!-- o5 -->
<g id="node22" class="node"><title>o5</title>
<polygon fill="none" stroke="black" points="592,-52 482,-52 482,-16 592,-16 592,-52"/>
<text text-anchor="middle" x="537" y="-30.3" font-family="Times New Roman,serif" font-size="14.00">(leave&#39; E6 C LT)</text>
</g>
<!-- r6&#45;&gt;o5 -->
<g id="edge14" class="edge"><title>r6&#45;&gt;o5</title>
<path fill="none" stroke="black" d="M537,-88.0627C537,-84.803 537,-73.5415 537,-62.2268"/>
<polygon fill="black" stroke="black" points="540.5,-62.0488 537,-52.0489 533.5,-62.0489 540.5,-62.0488"/>
</g>
<!-- o6 -->
<g id="node24" class="node"><title>o6</title>
<polygon fill="none" stroke="black" points="929.25,-52 846.75,-52 846.75,-16 929.25,-16 929.25,-52"/>
<text text-anchor="middle" x="888" y="-30.3" font-family="Times New Roman,serif" font-size="14.00">(seq E5 E6)</text>
</g>
<!-- r7&#45;&gt;o6 -->
<g id="edge17" class="edge"><title>r7&#45;&gt;o6</title>
<path fill="none" stroke="black" d="M888,-88.0627C888,-84.803 888,-73.5415 888,-62.2268"/>
<polygon fill="black" stroke="black" points="891.5,-62.0488 888,-52.0489 884.5,-62.0489 891.5,-62.0488"/>
</g>
</g>
</svg>
