<?xml version="1.0" encoding="UTF-8" standalone="no"?>
<!DOCTYPE svg PUBLIC "-//W3C//DTD SVG 1.1//EN"
 "http://www.w3.org/Graphics/SVG/1.1/DTD/svg11.dtd">
<!-- Generated by graphviz version 2.36.0 (20140111.2315)
 -->
<!-- Title: proof Pages: 1 -->
<svg width="602pt" height="396pt"
 viewBox="0.00 0.00 602.00 396.00" xmlns="http://www.w3.org/2000/svg" xmlns:xlink="http://www.w3.org/1999/xlink">
<g id="graph0" class="graph" transform="scale(1 1) rotate(0) translate(4 392)">
<title>proof</title>
<polygon fill="white" stroke="none" points="-4,4 -4,-392 598,-392 598,4 -4,4"/>
<g id="clust1" class="cluster"><title>cluster</title>
<polygon fill="none" stroke="black" points="129,-8 129,-60 513,-60 513,-8 129,-8"/>
</g>
<!-- e0 -->
<g id="node1" class="node"><title>e0</title>
<ellipse fill="none" stroke="black" cx="239" cy="-146" rx="27" ry="18"/>
<text text-anchor="middle" x="239" y="-142.3" font-family="Times New Roman,serif" font-size="14.00">0.9</text>
</g>
<!-- r0 -->
<g id="node12" class="node"><title>r0</title>
<ellipse fill="black" stroke="black" cx="329" cy="-90" rx="1.8" ry="1.8"/>
</g>
<!-- e0&#45;&gt;r0 -->
<g id="edge5" class="edge"><title>e0&#45;&gt;r0</title>
<path fill="none" stroke="black" d="M258.529,-133.283C282.517,-118.89 320.904,-95.8577 327.891,-91.6657"/>
</g>
<!-- e1 -->
<g id="node2" class="node"><title>e1</title>
<ellipse fill="none" stroke="black" cx="372" cy="-258" rx="27" ry="18"/>
<text text-anchor="middle" x="372" y="-254.3" font-family="Times New Roman,serif" font-size="14.00">0.5</text>
</g>
<!-- r1 -->
<g id="node14" class="node"><title>r1</title>
<ellipse fill="black" stroke="black" cx="372" cy="-202" rx="1.8" ry="1.8"/>
</g>
<!-- e1&#45;&gt;r1 -->
<g id="edge7" class="edge"><title>e1&#45;&gt;r1</title>
<path fill="none" stroke="black" d="M372,-239.914C372,-226.071 372,-208.191 372,-203.937"/>
</g>
<!-- e2 -->
<g id="node3" class="node"><title>e2</title>
<ellipse fill="none" stroke="black" cx="481" cy="-258" rx="27" ry="18"/>
<text text-anchor="middle" x="481" y="-254.3" font-family="Times New Roman,serif" font-size="14.00">1.0</text>
</g>
<!-- r2 -->
<g id="node15" class="node"><title>r2</title>
<ellipse fill="black" stroke="black" cx="481" cy="-202" rx="1.8" ry="1.8"/>
</g>
<!-- e2&#45;&gt;r2 -->
<g id="edge9" class="edge"><title>e2&#45;&gt;r2</title>
<path fill="none" stroke="black" d="M481,-239.914C481,-226.071 481,-208.191 481,-203.937"/>
</g>
<!-- e3 -->
<g id="node4" class="node"><title>e3</title>
<ellipse fill="none" stroke="black" cx="265" cy="-370" rx="27" ry="18"/>
<text text-anchor="middle" x="265" y="-366.3" font-family="Times New Roman,serif" font-size="14.00">0.1</text>
</g>
<!-- r3 -->
<g id="node16" class="node"><title>r3</title>
<ellipse fill="black" stroke="black" cx="265" cy="-314" rx="1.8" ry="1.8"/>
</g>
<!-- e3&#45;&gt;r3 -->
<g id="edge11" class="edge"><title>e3&#45;&gt;r3</title>
<path fill="none" stroke="black" d="M265,-351.914C265,-338.071 265,-320.191 265,-315.937"/>
</g>
<!-- e4 -->
<g id="node5" class="node"><title>e4</title>
<ellipse fill="none" stroke="black" cx="27" cy="-146" rx="27" ry="18"/>
<text text-anchor="middle" x="27" y="-142.3" font-family="Times New Roman,serif" font-size="14.00">0.9</text>
</g>
<!-- r4 -->
<g id="node17" class="node"><title>r4</title>
<ellipse fill="black" stroke="black" cx="133" cy="-90" rx="1.8" ry="1.8"/>
</g>
<!-- e4&#45;&gt;r4 -->
<g id="edge14" class="edge"><title>e4&#45;&gt;r4</title>
<path fill="none" stroke="black" d="M47.9422,-134.331C75.9377,-120.069 123.048,-96.0697 131.636,-91.6951"/>
</g>
<!-- e5 -->
<g id="node6" class="node"><title>e5</title>
<ellipse fill="none" stroke="black" cx="146" cy="-258" rx="27" ry="18"/>
<text text-anchor="middle" x="146" y="-254.3" font-family="Times New Roman,serif" font-size="14.00">0.6</text>
</g>
<!-- r5 -->
<g id="node19" class="node"><title>r5</title>
<ellipse fill="black" stroke="black" cx="146" cy="-202" rx="1.8" ry="1.8"/>
</g>
<!-- e5&#45;&gt;r5 -->
<g id="edge17" class="edge"><title>e5&#45;&gt;r5</title>
<path fill="none" stroke="black" d="M146,-239.914C146,-226.071 146,-208.191 146,-203.937"/>
</g>
<!-- e6 -->
<g id="node7" class="node"><title>e6</title>
<ellipse fill="none" stroke="black" cx="567" cy="-146" rx="27" ry="18"/>
<text text-anchor="middle" x="567" y="-142.3" font-family="Times New Roman,serif" font-size="14.00">1.0</text>
</g>
<!-- r6 -->
<g id="node20" class="node"><title>r6</title>
<ellipse fill="black" stroke="black" cx="532" cy="-90" rx="1.8" ry="1.8"/>
</g>
<!-- e6&#45;&gt;r6 -->
<g id="edge19" class="edge"><title>e6&#45;&gt;r6</title>
<path fill="none" stroke="black" d="M556.688,-129.09C547.655,-115.153 535.528,-96.443 532.637,-91.9834"/>
</g>
<!-- i0 -->
<g id="node8" class="node"><title>i0</title>
<polygon fill="none" stroke="black" points="422,-164 322,-164 322,-128 422,-128 422,-164"/>
<text text-anchor="middle" x="372" y="-142.3" font-family="Times New Roman,serif" font-size="14.00">(goal&#39; $1 $2 C)</text>
</g>
<!-- i0&#45;&gt;r0 -->
<g id="edge2" class="edge"><title>i0&#45;&gt;r0</title>
<path fill="none" stroke="black" d="M358.395,-127.914C347.372,-114.071 333.134,-96.191 329.746,-91.9373"/>
</g>
<!-- i1 -->
<g id="node9" class="node"><title>i1</title>
<polygon fill="none" stroke="black" points="521.25,-164 440.75,-164 440.75,-128 521.25,-128 521.25,-164"/>
<text text-anchor="middle" x="481" y="-142.3" font-family="Times New Roman,serif" font-size="14.00">(not&#39; $2 $3)</text>
</g>
<!-- i1&#45;&gt;r0 -->
<g id="edge3" class="edge"><title>i1&#45;&gt;r0</title>
<path fill="none" stroke="black" d="M440.666,-130.671C399.153,-115.923 339.28,-94.6521 330.178,-91.4185"/>
</g>
<!-- i2 -->
<g id="node10" class="node"><title>i2</title>
<polygon fill="none" stroke="black" points="314.25,-276 215.75,-276 215.75,-240 314.25,-240 314.25,-276"/>
<text text-anchor="middle" x="265" y="-254.3" font-family="Times New Roman,serif" font-size="14.00">(see&#39; $3 BT C)</text>
</g>
<!-- i2&#45;&gt;r0 -->
<g id="edge4" class="edge"><title>i2&#45;&gt;r0</title>
<path fill="none" stroke="black" d="M271.086,-239.781C279.936,-214.944 297.048,-167.688 313,-128 318.847,-113.454 326.712,-96.0355 328.587,-91.908"/>
</g>
<!-- i2&#45;&gt;r5 -->
<g id="edge16" class="edge"><title>i2&#45;&gt;r5</title>
<path fill="none" stroke="black" d="M227.348,-239.914C195.753,-225.577 154.614,-206.909 147.178,-203.534"/>
</g>
<!-- i3 -->
<g id="node11" class="node"><title>i3</title>
<polygon fill="none" stroke="black" points="193.25,-164 72.75,-164 72.75,-128 193.25,-128 193.25,-164"/>
<text text-anchor="middle" x="133" y="-142.3" font-family="Times New Roman,serif" font-size="14.00">(startle&#39; $97 C BT)</text>
</g>
<!-- i3&#45;&gt;r4 -->
<g id="edge13" class="edge"><title>i3&#45;&gt;r4</title>
<path fill="none" stroke="black" d="M133,-127.914C133,-114.071 133,-96.191 133,-91.9373"/>
</g>
<!-- o0 -->
<g id="node13" class="node"><title>o0</title>
<polygon fill="none" stroke="black" points="403,-52 255,-52 255,-16 403,-16 403,-52"/>
<text text-anchor="middle" x="329" y="-30.3" font-family="Times New Roman,serif" font-size="14.00">(creepUpOn&#39; E1 C BT)</text>
</g>
<!-- r0&#45;&gt;o0 -->
<g id="edge1" class="edge"><title>r0&#45;&gt;o0</title>
<path fill="none" stroke="black" d="M329,-88.0627C329,-84.803 329,-73.5415 329,-62.2268"/>
<polygon fill="black" stroke="black" points="332.5,-62.0488 329,-52.0489 325.5,-62.0489 332.5,-62.0488"/>
</g>
<!-- r1&#45;&gt;i0 -->
<g id="edge6" class="edge"><title>r1&#45;&gt;i0</title>
<path fill="none" stroke="black" d="M372,-200.063C372,-196.803 372,-185.541 372,-174.227"/>
<polygon fill="black" stroke="black" points="375.5,-174.049 372,-164.049 368.5,-174.049 375.5,-174.049"/>
</g>
<!-- r2&#45;&gt;i1 -->
<g id="edge8" class="edge"><title>r2&#45;&gt;i1</title>
<path fill="none" stroke="black" d="M481,-200.063C481,-196.803 481,-185.541 481,-174.227"/>
<polygon fill="black" stroke="black" points="484.5,-174.049 481,-164.049 477.5,-174.049 484.5,-174.049"/>
</g>
<!-- r3&#45;&gt;i2 -->
<g id="edge10" class="edge"><title>r3&#45;&gt;i2</title>
<path fill="none" stroke="black" d="M265,-312.063C265,-308.803 265,-297.541 265,-286.227"/>
<polygon fill="black" stroke="black" points="268.5,-286.049 265,-276.049 261.5,-286.049 268.5,-286.049"/>
</g>
<!-- o1 -->
<g id="node18" class="node"><title>o1</title>
<polygon fill="none" stroke="black" points="237,-52 137,-52 137,-16 237,-16 237,-52"/>
<text text-anchor="middle" x="187" y="-30.3" font-family="Times New Roman,serif" font-size="14.00">(flinch&#39; E2 BT)</text>
</g>
<!-- r4&#45;&gt;o1 -->
<g id="edge12" class="edge"><title>r4&#45;&gt;o1</title>
<path fill="none" stroke="black" d="M133.937,-88.0627C137.463,-84.5369 150.35,-71.6495 162.541,-59.4591"/>
<polygon fill="black" stroke="black" points="165.355,-61.5948 169.951,-52.0489 160.405,-56.6451 165.355,-61.5948"/>
</g>
<!-- r5&#45;&gt;i3 -->
<g id="edge15" class="edge"><title>r5&#45;&gt;i3</title>
<path fill="none" stroke="black" d="M145.774,-200.063C144.982,-196.77 142.223,-185.311 139.471,-173.88"/>
<polygon fill="black" stroke="black" points="142.848,-172.952 137.104,-164.049 136.042,-174.59 142.848,-172.952"/>
</g>
<!-- o2 -->
<g id="node21" class="node"><title>o2</title>
<polygon fill="none" stroke="black" points="504.25,-52 421.75,-52 421.75,-16 504.25,-16 504.25,-52"/>
<text text-anchor="middle" x="463" y="-30.3" font-family="Times New Roman,serif" font-size="14.00">(seq E1 E2)</text>
</g>
<!-- r6&#45;&gt;o2 -->
<g id="edge18" class="edge"><title>r6&#45;&gt;o2</title>
<path fill="none" stroke="black" d="M531.025,-88.2366C526.756,-84.8962 509.213,-71.1665 493.012,-58.4879"/>
<polygon fill="black" stroke="black" points="494.772,-55.421 484.74,-52.0141 490.458,-60.9335 494.772,-55.421"/>
</g>
</g>
</svg>
