<?xml version="1.0" encoding="UTF-8" standalone="no"?>
<!DOCTYPE svg PUBLIC "-//W3C//DTD SVG 1.1//EN"
 "http://www.w3.org/Graphics/SVG/1.1/DTD/svg11.dtd">
<!-- Generated by graphviz version 2.36.0 (20140111.2315)
 -->
<!-- Title: proof Pages: 1 -->
<svg width="1445pt" height="1336pt"
 viewBox="0.00 0.00 1445.00 1336.00" xmlns="http://www.w3.org/2000/svg" xmlns:xlink="http://www.w3.org/1999/xlink">
<g id="graph0" class="graph" transform="scale(1 1) rotate(0) translate(4 1332)">
<title>proof</title>
<polygon fill="white" stroke="none" points="-4,4 -4,-1332 1441,-1332 1441,4 -4,4"/>
<g id="clust1" class="cluster"><title>cluster</title>
<polygon fill="none" stroke="black" points="463.241,-354.155 463.241,-971.155 1233.24,-971.155 1233.24,-354.155 463.241,-354.155"/>
</g>
<!-- e0 -->
<g id="node1" class="node"><title>e0</title>
<ellipse fill="none" stroke="black" cx="515.358" cy="-1203.96" rx="27" ry="18"/>
<text text-anchor="middle" x="515.358" y="-1200.26" font-family="Times New Roman,serif" font-size="14.00">0.8</text>
</g>
<!-- r0 -->
<g id="node19" class="node"><title>r0</title>
<ellipse fill="black" stroke="black" cx="563.371" cy="-1139.6" rx="1.8" ry="1.8"/>
</g>
<!-- e0&#45;&gt;r0 -->
<g id="edge4" class="edge"><title>e0&#45;&gt;r0</title>
<path fill="none" stroke="black" d="M527.474,-1187.72C539.697,-1171.34 557.423,-1147.58 562.166,-1141.22"/>
</g>
<!-- e1 -->
<g id="node2" class="node"><title>e1</title>
<ellipse fill="none" stroke="black" cx="779.12" cy="-1115.11" rx="27" ry="18"/>
<text text-anchor="middle" x="779.12" y="-1111.41" font-family="Times New Roman,serif" font-size="14.00">0.5</text>
</g>
<!-- r1 -->
<g id="node22" class="node"><title>r1</title>
<ellipse fill="black" stroke="black" cx="717.01" cy="-1088.8" rx="1.8" ry="1.8"/>
</g>
<!-- e1&#45;&gt;r1 -->
<g id="edge6" class="edge"><title>e1&#45;&gt;r1</title>
<path fill="none" stroke="black" d="M755.992,-1105.32C741.369,-1099.12 724.232,-1091.86 718.773,-1089.55"/>
</g>
<!-- e2 -->
<g id="node3" class="node"><title>e2</title>
<ellipse fill="none" stroke="black" cx="655.458" cy="-1309.59" rx="27" ry="18"/>
<text text-anchor="middle" x="655.458" y="-1305.89" font-family="Times New Roman,serif" font-size="14.00">0.05</text>
</g>
<!-- r2 -->
<g id="node23" class="node"><title>r2</title>
<ellipse fill="black" stroke="black" cx="687.527" cy="-1234.14" rx="1.8" ry="1.8"/>
</g>
<!-- e2&#45;&gt;r2 -->
<g id="edge8" class="edge"><title>e2&#45;&gt;r2</title>
<path fill="none" stroke="black" d="M662.896,-1292.09C671.037,-1272.94 683.377,-1243.9 686.686,-1236.12"/>
</g>
<!-- e3 -->
<g id="node4" class="node"><title>e3</title>
<ellipse fill="none" stroke="black" cx="1156.92" cy="-292.507" rx="27" ry="18"/>
<text text-anchor="middle" x="1156.92" y="-288.807" font-family="Times New Roman,serif" font-size="14.00">0.01</text>
</g>
<!-- r3 -->
<g id="node24" class="node"><title>r3</title>
<ellipse fill="black" stroke="black" cx="1113.5" cy="-339.109" rx="1.8" ry="1.8"/>
</g>
<!-- e3&#45;&gt;r3 -->
<g id="edge10" class="edge"><title>e3&#45;&gt;r3</title>
<path fill="none" stroke="black" d="M1142.46,-308.025C1132,-319.251 1119,-333.201 1114.84,-337.665"/>
</g>
<!-- e4 -->
<g id="node5" class="node"><title>e4</title>
<ellipse fill="none" stroke="black" cx="246.484" cy="-817.81" rx="27" ry="18"/>
<text text-anchor="middle" x="246.484" y="-814.11" font-family="Times New Roman,serif" font-size="14.00">0.9</text>
</g>
<!-- r4 -->
<g id="node26" class="node"><title>r4</title>
<ellipse fill="black" stroke="black" cx="317.818" cy="-840.85" rx="1.8" ry="1.8"/>
</g>
<!-- e4&#45;&gt;r4 -->
<g id="edge16" class="edge"><title>e4&#45;&gt;r4</title>
<path fill="none" stroke="black" d="M271.033,-825.739C288.443,-831.362 309.781,-838.254 316.024,-840.271"/>
</g>
<!-- e5 -->
<g id="node6" class="node"><title>e5</title>
<ellipse fill="none" stroke="black" cx="563.382" cy="-999.048" rx="27" ry="18"/>
<text text-anchor="middle" x="563.382" y="-995.348" font-family="Times New Roman,serif" font-size="14.00">0.9</text>
</g>
<!-- r5 -->
<g id="node29" class="node"><title>r5</title>
<ellipse fill="black" stroke="black" cx="512.304" cy="-987.919" rx="1.8" ry="1.8"/>
</g>
<!-- e5&#45;&gt;r5 -->
<g id="edge20" class="edge"><title>e5&#45;&gt;r5</title>
<path fill="none" stroke="black" d="M537.543,-993.418C528.042,-991.348 518.595,-989.289 514.466,-988.39"/>
</g>
<!-- e6 -->
<g id="node7" class="node"><title>e6</title>
<ellipse fill="none" stroke="black" cx="229.889" cy="-538.159" rx="27" ry="18"/>
<text text-anchor="middle" x="229.889" y="-534.459" font-family="Times New Roman,serif" font-size="14.00">0.2</text>
</g>
<!-- r6 -->
<g id="node30" class="node"><title>r6</title>
<ellipse fill="black" stroke="black" cx="253.83" cy="-601.484" rx="1.8" ry="1.8"/>
</g>
<!-- e6&#45;&gt;r6 -->
<g id="edge22" class="edge"><title>e6&#45;&gt;r6</title>
<path fill="none" stroke="black" d="M236.558,-555.799C242.535,-571.608 250.722,-593.263 253.134,-599.644"/>
</g>
<!-- e7 -->
<g id="node8" class="node"><title>e7</title>
<ellipse fill="none" stroke="black" cx="26.5757" cy="-937.735" rx="27" ry="18"/>
<text text-anchor="middle" x="26.5757" y="-934.035" font-family="Times New Roman,serif" font-size="14.00">1.0</text>
</g>
<!-- r7 -->
<g id="node31" class="node"><title>r7</title>
<ellipse fill="black" stroke="black" cx="106.579" cy="-913.786" rx="1.8" ry="1.8"/>
</g>
<!-- e7&#45;&gt;r7 -->
<g id="edge24" class="edge"><title>e7&#45;&gt;r7</title>
<path fill="none" stroke="black" d="M51.4508,-930.289C71.6334,-924.247 97.841,-916.402 104.813,-914.315"/>
</g>
<!-- e8 -->
<g id="node9" class="node"><title>e8</title>
<ellipse fill="none" stroke="black" cx="697.451" cy="-18.4553" rx="27" ry="18"/>
<text text-anchor="middle" x="697.451" y="-14.7553" font-family="Times New Roman,serif" font-size="14.00">0.2</text>
</g>
<!-- r8 -->
<g id="node32" class="node"><title>r8</title>
<ellipse fill="black" stroke="black" cx="719.725" cy="-86.3238" rx="1.8" ry="1.8"/>
</g>
<!-- e8&#45;&gt;r8 -->
<g id="edge26" class="edge"><title>e8&#45;&gt;r8</title>
<path fill="none" stroke="black" d="M703.303,-36.287C708.872,-53.2533 716.735,-77.2109 719.056,-84.2834"/>
</g>
<!-- e9 -->
<g id="node10" class="node"><title>e9</title>
<ellipse fill="none" stroke="black" cx="480.929" cy="-202.883" rx="27" ry="18"/>
<text text-anchor="middle" x="480.929" y="-199.183" font-family="Times New Roman,serif" font-size="14.00">0.2</text>
</g>
<!-- r9 -->
<g id="node33" class="node"><title>r9</title>
<ellipse fill="black" stroke="black" cx="450.443" cy="-267.948" rx="1.8" ry="1.8"/>
</g>
<!-- e9&#45;&gt;r9 -->
<g id="edge29" class="edge"><title>e9&#45;&gt;r9</title>
<path fill="none" stroke="black" d="M472.759,-220.319C465.14,-236.581 454.491,-259.308 451.35,-266.014"/>
</g>
<!-- e10 -->
<g id="node11" class="node"><title>e10</title>
<ellipse fill="none" stroke="black" cx="253.724" cy="-172.179" rx="27" ry="18"/>
<text text-anchor="middle" x="253.724" y="-168.479" font-family="Times New Roman,serif" font-size="14.00">0.2</text>
</g>
<!-- r10 -->
<g id="node35" class="node"><title>r10</title>
<ellipse fill="black" stroke="black" cx="293.424" cy="-234.137" rx="1.8" ry="1.8"/>
</g>
<!-- e10&#45;&gt;r10 -->
<g id="edge31" class="edge"><title>e10&#45;&gt;r10</title>
<path fill="none" stroke="black" d="M264.363,-188.783C274.285,-204.268 288.152,-225.91 292.244,-232.295"/>
</g>
<!-- e11 -->
<g id="node12" class="node"><title>e11</title>
<ellipse fill="none" stroke="black" cx="345.753" cy="-485.632" rx="27" ry="18"/>
<text text-anchor="middle" x="345.753" y="-481.932" font-family="Times New Roman,serif" font-size="14.00">0.5</text>
</g>
<!-- r11 -->
<g id="node36" class="node"><title>r11</title>
<ellipse fill="black" stroke="black" cx="358.164" cy="-420.724" rx="1.8" ry="1.8"/>
</g>
<!-- e11&#45;&gt;r11 -->
<g id="edge34" class="edge"><title>e11&#45;&gt;r11</title>
<path fill="none" stroke="black" d="M349.21,-467.552C352.309,-451.347 356.553,-429.151 357.803,-422.61"/>
</g>
<!-- e12 -->
<g id="node13" class="node"><title>e12</title>
<ellipse fill="none" stroke="black" cx="1410.01" cy="-997.571" rx="27" ry="18"/>
<text text-anchor="middle" x="1410.01" y="-993.871" font-family="Times New Roman,serif" font-size="14.00">1.0</text>
</g>
<!-- r12 -->
<g id="node38" class="node"><title>r12</title>
<ellipse fill="black" stroke="black" cx="1349.93" cy="-957.391" rx="1.8" ry="1.8"/>
</g>
<!-- e12&#45;&gt;r12 -->
<g id="edge36" class="edge"><title>e12&#45;&gt;r12</title>
<path fill="none" stroke="black" d="M1390.67,-984.637C1375.85,-974.726 1357.03,-962.143 1351.52,-958.452"/>
</g>
<!-- i0 -->
<g id="node14" class="node"><title>i0</title>
<polygon fill="none" stroke="black" points="655.052,-1070.46 546.052,-1070.46 546.052,-1034.46 655.052,-1034.46 655.052,-1070.46"/>
<text text-anchor="middle" x="600.552" y="-1048.76" font-family="Times New Roman,serif" font-size="14.00">(goal&#39; $7 E6 LT)</text>
</g>
<!-- i0&#45;&gt;r0 -->
<g id="edge2" class="edge"><title>i0&#45;&gt;r0</title>
<path fill="none" stroke="black" d="M592.848,-1070.52C583.319,-1092.85 567.897,-1129 564.191,-1137.68"/>
</g>
<!-- i0&#45;&gt;r5 -->
<g id="edge18" class="edge"><title>i0&#45;&gt;r5</title>
<path fill="none" stroke="black" d="M575.499,-1034.14C552.671,-1017.44 521.408,-994.577 513.949,-989.122"/>
</g>
<!-- i1 -->
<g id="node15" class="node"><title>i1</title>
<polygon fill="none" stroke="black" points="454.797,-943.03 326.797,-943.03 326.797,-907.03 454.797,-907.03 454.797,-943.03"/>
<text text-anchor="middle" x="390.797" y="-921.33" font-family="Times New Roman,serif" font-size="14.00">(knock&#39; $194 LT D)</text>
</g>
<!-- i1&#45;&gt;r4 -->
<g id="edge12" class="edge"><title>i1&#45;&gt;r4</title>
<path fill="none" stroke="black" d="M374.962,-906.764C355.846,-884.714 325.453,-849.657 319.034,-842.252"/>
</g>
<!-- i2 -->
<g id="node16" class="node"><title>i2</title>
<polygon fill="none" stroke="black" points="354.478,-737.273 220.478,-737.273 220.478,-701.273 354.478,-701.273 354.478,-737.273"/>
<text text-anchor="middle" x="287.478" y="-715.573" font-family="Times New Roman,serif" font-size="14.00">(know&#39; $196 C $194)</text>
</g>
<!-- i2&#45;&gt;r4 -->
<g id="edge13" class="edge"><title>i2&#45;&gt;r4</title>
<path fill="none" stroke="black" d="M292.02,-737.474C299.624,-767.946 314.389,-827.108 317.309,-838.811"/>
</g>
<!-- i3 -->
<g id="node17" class="node"><title>i3</title>
<polygon fill="none" stroke="black" points="256.681,-901.976 148.681,-901.976 148.681,-865.976 256.681,-865.976 256.681,-901.976"/>
<text text-anchor="middle" x="202.681" y="-880.276" font-family="Times New Roman,serif" font-size="14.00">(not&#39; $197 $196)</text>
</g>
<!-- i3&#45;&gt;r4 -->
<g id="edge14" class="edge"><title>i3&#45;&gt;r4</title>
<path fill="none" stroke="black" d="M250.842,-865.937C277.956,-855.781 307.932,-844.553 315.826,-841.596"/>
</g>
<!-- i4 -->
<g id="node18" class="node"><title>i4</title>
<polygon fill="none" stroke="black" points="415.373,-329.534 302.373,-329.534 302.373,-293.534 415.373,-293.534 415.373,-329.534"/>
<text text-anchor="middle" x="358.873" y="-307.834" font-family="Times New Roman,serif" font-size="14.00">(like&#39; $233 C LT)</text>
</g>
<!-- i4&#45;&gt;r9 -->
<g id="edge28" class="edge"><title>i4&#45;&gt;r9</title>
<path fill="none" stroke="black" d="M396.911,-293.428C418.139,-283.324 441.655,-272.131 448.486,-268.879"/>
</g>
<!-- i4&#45;&gt;r11 -->
<g id="edge33" class="edge"><title>i4&#45;&gt;r11</title>
<path fill="none" stroke="black" d="M358.756,-329.565C358.576,-357.186 358.247,-407.916 358.177,-418.682"/>
</g>
<!-- o0 -->
<g id="node20" class="node"><title>o0</title>
<polygon fill="none" stroke="black" points="943.731,-849.935 809.731,-849.935 809.731,-813.935 943.731,-813.935 943.731,-849.935"/>
<text text-anchor="middle" x="876.731" y="-828.235" font-family="Times New Roman,serif" font-size="14.00">(approach&#39; E1 LT D)</text>
</g>
<!-- r0&#45;&gt;o0 -->
<g id="edge1" class="edge"><title>r0&#45;&gt;o0</title>
<path fill="none" stroke="black" d="M564.768,-1138.23C583.214,-1120.12 779.265,-927.631 850.798,-857.397"/>
<polygon fill="black" stroke="black" points="853.424,-859.724 858.107,-850.221 848.519,-854.729 853.424,-859.724"/>
</g>
<!-- o5 -->
<g id="node21" class="node"><title>o5</title>
<polygon fill="none" stroke="black" points="742.336,-899.278 647.336,-899.278 647.336,-863.278 742.336,-863.278 742.336,-899.278"/>
<text text-anchor="middle" x="694.836" y="-877.578" font-family="Times New Roman,serif" font-size="14.00">(enter&#39; E6 LT)</text>
</g>
<!-- o5&#45;&gt;r0 -->
<g id="edge3" class="edge"><title>o5&#45;&gt;r0</title>
<path fill="none" stroke="black" d="M685.592,-899.443C657.538,-954.568 574.665,-1117.41 564.415,-1137.55"/>
</g>
<!-- o5&#45;&gt;r5 -->
<g id="edge19" class="edge"><title>o5&#45;&gt;r5</title>
<path fill="none" stroke="black" d="M663.872,-899.368C615.864,-927.416 527.56,-979.006 514.056,-986.895"/>
</g>
<!-- r1&#45;&gt;i0 -->
<g id="edge5" class="edge"><title>r1&#45;&gt;i0</title>
<path fill="none" stroke="black" d="M714.989,-1088.17C708.487,-1086.14 687.226,-1079.51 664.765,-1072.5"/>
<polygon fill="black" stroke="black" points="665.693,-1069.12 655.105,-1069.48 663.608,-1075.8 665.693,-1069.12"/>
</g>
<!-- r2&#45;&gt;o5 -->
<g id="edge7" class="edge"><title>r2&#45;&gt;o5</title>
<path fill="none" stroke="black" d="M687.567,-1232.24C688.037,-1209.55 692.592,-989.65 694.243,-909.945"/>
<polygon fill="black" stroke="black" points="697.748,-909.734 694.456,-899.664 690.749,-909.589 697.748,-909.734"/>
</g>
<!-- o1 -->
<g id="node25" class="node"><title>o1</title>
<polygon fill="none" stroke="black" points="1224.83,-738.335 1115.83,-738.335 1115.83,-702.335 1224.83,-702.335 1224.83,-738.335"/>
<text text-anchor="middle" x="1170.33" y="-716.635" font-family="Times New Roman,serif" font-size="14.00">(outside&#39; E2 LT)</text>
</g>
<!-- r3&#45;&gt;o1 -->
<g id="edge9" class="edge"><title>r3&#45;&gt;o1</title>
<path fill="none" stroke="black" d="M1113.8,-341.16C1117.49,-365.921 1153.58,-607.994 1166.09,-691.885"/>
<polygon fill="black" stroke="black" points="1162.66,-692.599 1167.6,-701.973 1169.58,-691.567 1162.66,-692.599"/>
</g>
<!-- o2 -->
<g id="node27" class="node"><title>o2</title>
<polygon fill="none" stroke="black" points="573.101,-639.561 471.101,-639.561 471.101,-603.561 573.101,-603.561 573.101,-639.561"/>
<text text-anchor="middle" x="522.101" y="-617.861" font-family="Times New Roman,serif" font-size="14.00">(open&#39; E3 C D)</text>
</g>
<!-- r4&#45;&gt;o2 -->
<g id="edge11" class="edge"><title>r4&#45;&gt;o2</title>
<path fill="none" stroke="black" d="M319.123,-839.45C332.629,-824.952 447.481,-701.662 498.196,-647.222"/>
<polygon fill="black" stroke="black" points="500.938,-649.413 505.194,-639.71 495.816,-644.642 500.938,-649.413"/>
</g>
<!-- o3 -->
<g id="node28" class="node"><title>o3</title>
<polygon fill="none" stroke="black" points="1001.66,-550.787 908.664,-550.787 908.664,-514.787 1001.66,-514.787 1001.66,-550.787"/>
<text text-anchor="middle" x="955.164" y="-529.087" font-family="Times New Roman,serif" font-size="14.00">(inside&#39; E4 C)</text>
</g>
<!-- o3&#45;&gt;r4 -->
<g id="edge15" class="edge"><title>o3&#45;&gt;r4</title>
<path fill="none" stroke="black" d="M917.675,-550.907C785.859,-614.621 349.986,-825.302 319.502,-840.037"/>
</g>
<!-- r5&#45;&gt;i1 -->
<g id="edge17" class="edge"><title>r5&#45;&gt;i1</title>
<path fill="none" stroke="black" d="M510.586,-987.03C502.3,-982.741 465.599,-963.745 434.98,-947.897"/>
<polygon fill="black" stroke="black" points="436.2,-944.588 425.71,-943.1 432.983,-950.805 436.2,-944.588"/>
</g>
<!-- r6&#45;&gt;i2 -->
<g id="edge21" class="edge"><title>r6&#45;&gt;i2</title>
<path fill="none" stroke="black" d="M254.414,-603.528C257.346,-613.793 270.67,-660.436 279.484,-691.288"/>
<polygon fill="black" stroke="black" points="276.166,-692.416 282.278,-701.07 282.896,-690.493 276.166,-692.416"/>
</g>
<!-- r7&#45;&gt;i3 -->
<g id="edge23" class="edge"><title>r7&#45;&gt;i3</title>
<path fill="none" stroke="black" d="M108.587,-913.164C113.142,-911.751 124.942,-908.09 138.707,-903.82"/>
<polygon fill="black" stroke="black" points="139.972,-907.093 148.486,-900.787 137.898,-900.407 139.972,-907.093"/>
</g>
<!-- r8&#45;&gt;o3 -->
<g id="edge25" class="edge"><title>r8&#45;&gt;o3</title>
<path fill="none" stroke="black" d="M720.578,-87.9404C733.587,-112.609 891.796,-412.622 940.794,-505.537"/>
<polygon fill="black" stroke="black" points="937.814,-507.389 945.575,-514.602 944.006,-504.124 937.814,-507.389"/>
</g>
<!-- o4 -->
<g id="node34" class="node"><title>o4</title>
<polygon fill="none" stroke="black" points="735.95,-734.108 633.95,-734.108 633.95,-698.108 735.95,-698.108 735.95,-734.108"/>
<text text-anchor="middle" x="684.95" y="-712.408" font-family="Times New Roman,serif" font-size="14.00">(hug&#39; E5 C LT)</text>
</g>
<!-- r9&#45;&gt;o4 -->
<g id="edge27" class="edge"><title>r9&#45;&gt;o4</title>
<path fill="none" stroke="black" d="M451.293,-269.57C464.25,-294.333 621.833,-595.487 670.637,-688.755"/>
<polygon fill="black" stroke="black" points="667.661,-690.617 675.398,-697.855 673.863,-687.372 667.661,-690.617"/>
</g>
<!-- r10&#45;&gt;i4 -->
<g id="edge30" class="edge"><title>r10&#45;&gt;i4</title>
<path fill="none" stroke="black" d="M294.791,-235.753C300.212,-242.164 320.698,-266.39 337.067,-285.748"/>
<polygon fill="black" stroke="black" points="334.419,-288.036 343.549,-293.412 339.764,-283.517 334.419,-288.036"/>
</g>
<!-- o6 -->
<g id="node37" class="node"><title>o6</title>
<polygon fill="none" stroke="black" points="839.41,-397.805 693.41,-397.805 693.41,-361.805 839.41,-361.805 839.41,-397.805"/>
<text text-anchor="middle" x="766.41" y="-376.105" font-family="Times New Roman,serif" font-size="14.00">(accompany&#39; E7 C LT)</text>
</g>
<!-- r11&#45;&gt;o6 -->
<g id="edge32" class="edge"><title>r11&#45;&gt;o6</title>
<path fill="none" stroke="black" d="M359.984,-420.542C380.532,-418.482 570.246,-399.467 683.072,-388.158"/>
<polygon fill="black" stroke="black" points="683.469,-391.636 693.07,-387.156 682.771,-384.671 683.469,-391.636"/>
</g>
<!-- o7 -->
<g id="node39" class="node"><title>o7</title>
<polygon fill="none" stroke="black" points="1115.66,-880.238 976.66,-880.238 976.66,-844.238 1115.66,-844.238 1115.66,-880.238"/>
<text text-anchor="middle" x="1046.16" y="-858.538" font-family="Times New Roman,serif" font-size="14.00">(seq E1 E3 E5 E6 E7)</text>
</g>
<!-- r12&#45;&gt;o7 -->
<g id="edge35" class="edge"><title>r12&#45;&gt;o7</title>
<path fill="none" stroke="black" d="M1347.99,-956.783C1330.37,-951.264 1196.76,-909.41 1113.31,-883.273"/>
<polygon fill="black" stroke="black" points="1114.24,-879.895 1103.65,-880.246 1112.14,-886.575 1114.24,-879.895"/>
</g>
</g>
</svg>
